<svg xmlns="http://www.w3.org/2000/svg" width="1600" height="1000" viewBox="0 0 1600 1000">
  <defs>
    <linearGradient id="sky" x1="0" y1="0" x2="0" y2="1">
      <stop offset="0%" stop-color="#0a1628"/>
      <stop offset="40%" stop-color="#1a2d4d"/>
      <stop offset="100%" stop-color="#c9a96e"/>
    </linearGradient>
    <linearGradient id="sea" x1="0" y1="0" x2="0" y2="1">
      <stop offset="0%" stop-color="#1a3a5c"/>
      <stop offset="100%" stop-color="#0d2137"/>
    </linearGradient>
    <linearGradient id="building" x1="0" y1="0" x2="0" y2="1">
      <stop offset="0%" stop-color="#2a3d5c"/>
      <stop offset="100%" stop-color="#1a2d4d"/>
    </linearGradient>
    <radialGradient id="sun" cx="0.8" cy="0.25" r="0.15">
      <stop offset="0%" stop-color="#f5e6c8"/>
      <stop offset="60%" stop-color="#c9a96e55"/>
      <stop offset="100%" stop-color="#c9a96e00"/>
    </radialGradient>
  </defs>
  <rect width="1600" height="1000" fill="url(#sky)"/>
  <circle cx="1280" cy="250" r="120" fill="url(#sun)"/>
  <rect y="450" width="1600" height="550" fill="url(#sea)"/>
  <path d="M0 450 Q200 420 400 440 Q600 460 800 430 Q1000 400 1200 440 Q1400 470 1600 450 L1600 480 Q1400 500 1200 480 Q1000 460 800 490 Q600 510 400 480 Q200 460 0 490 Z" fill="#1a3a5c" opacity="0.6"/>
  <path d="M0 470 Q200 490 400 470 Q600 450 800 480 Q1000 500 1200 470 Q1400 450 1600 480 L1600 1000 L0 1000 Z" fill="#0d2137"/>
  <rect x="400" y="320" width="800" height="200" rx="10" fill="url(#building)"/>
  <rect x="420" y="340" width="180" height="80" rx="4" fill="#3a506e"/>
  <rect x="620" y="340" width="180" height="80" rx="4" fill="#3a506e"/>
  <rect x="820" y="340" width="180" height="80" rx="4" fill="#3a506e"/>
  <rect x="1020" y="340" width="180" height="80" rx="4" fill="#3a506e"/>
  <rect x="420" y="430" width="760" height="5" rx="2" fill="#c9a96e33"/>
  <rect x="420" y="300" width="760" height="3" fill="#c9a96e"/>
  <text x="800" y="200" font-family="Georgia, serif" font-size="60" fill="#c9a96e" text-anchor="middle" opacity="0.8">Le Méridien Oran</text>
  <text x="800" y="250" font-family="Georgia, serif" font-size="20" fill="#f5f0e8" text-anchor="middle" opacity="0.5">Mediterranean Luxury</text>
</svg>