<svg xmlns="http://www.w3.org/2000/svg" width="800" height="600" viewBox="0 0 800 600">
  <defs>
    <linearGradient id="dining-bg" x1="0" y1="0" x2="0" y2="1">
      <stop offset="0%" stop-color="#1a2d4d"/>
      <stop offset="100%" stop-color="#0a1628"/>
    </linearGradient>
    <linearGradient id="table" x1="0" y1="0" x2="0" y2="1">
      <stop offset="0%" stop-color="#3a4a6a"/>
      <stop offset="100%" stop-color="#2a3d5c"/>
    </linearGradient>
  </defs>
  <rect width="800" height="600" fill="url(#dining-bg)"/>
  <rect x="0" y="480" width="800" height="120" fill="#0d1425"/>
  <rect x="0" y="475" width="800" height="5" fill="#c9a96e33"/>
  <!-- Tables -->
  <rect x="80" y="300" width="120" height="80" rx="6" fill="url(#table)"/>
  <rect x="80" y="280" width="120" height="20" rx="4" fill="#c9a96e33"/>
  <rect x="100" y="290" width="15" height="8" rx="3" fill="#f5f0e8"/>
  <rect x="165" y="290" width="15" height="8" rx="3" fill="#f5f0e8"/>
  <rect x="340" y="300" width="120" height="80" rx="6" fill="url(#table)"/>
  <rect x="340" y="280" width="120" height="20" rx="4" fill="#c9a96e33"/>
  <rect x="360" y="290" width="15" height="8" rx="3" fill="#f5f0e8"/>
  <rect x="425" y="290" width="15" height="8" rx="3" fill="#f5f0e8"/>
  <rect x="600" y="300" width="120" height="80" rx="6" fill="url(#table)"/>
  <rect x="600" y="280" width="120" height="20" rx="4" fill="#c9a96e33"/>
  <rect x="620" y="290" width="15" height="8" rx="3" fill="#f5f0e8"/>
  <rect x="685" y="290" width="15" height="8" rx="3" fill="#f5f0e8"/>
  <rect x="210" y="380" width="180" height="80" rx="6" fill="url(#table)"/>
  <rect x="210" y="360" width="180" height="20" rx="4" fill="#c9a96e33"/>
  <!-- Chandeliers -->
  <line x1="400" y1="20" x2="400" y2="60" stroke="#c9a96e" stroke-width="1.5"/>
  <ellipse cx="400" cy="62" rx="40" ry="8" fill="#c9a96e44"/>
  <!-- Candle on tables -->
  <rect x="130" y="275" width="4" height="12" rx="2" fill="#f5e6c8"/>
  <rect x="390" y="275" width="4" height="12" rx="2" fill="#f5e6c8"/>
  <rect x="650" y="275" width="4" height="12" rx="2" fill="#f5e6c8"/>
  <rect x="288" y="355" width="4" height="12" rx="2" fill="#f5e6c8"/>
  <ellipse cx="132" cy="274" rx="3" ry="2" fill="#c9a96e"/>
  <ellipse cx="392" cy="274" rx="3" ry="2" fill="#c9a96e"/>
  <ellipse cx="652" cy="274" rx="3" ry="2" fill="#c9a96e"/>
  <ellipse cx="290" cy="354" rx="3" ry="2" fill="#c9a96e"/>
  <text x="400" y="550" font-family="Georgia, serif" font-size="14" fill="#c9a96e88" text-anchor="middle">Fine Dining Restaurant</text>
</svg>